<svg xmlns="http://www.w3.org/2000/svg" width="56" height="56"><g fill="none" fill-rule="nonzero"><path fill="#B1D5FF" d="M13.07 51.33h42v-5.6H.93v5.6H5.6zM5.6 51.33h7.47v3.74H5.6zM42.93 51.33h7.47v3.74h-7.47zM18.67 21.47v5.6h-5.6v-5.6H3.73V42H28V21.47zM42.93 21.47v5.6h-5.6v-5.6H28V42h24.27V21.47zM30.8.93v5.6h-5.6V.93h-9.33v20.54h24.26V.93z"/><path fill="#1E81CE" d="M55.07 44.8H.93a.93.93 0 00-.93.93v5.6c0 .52.42.94.93.94h3.74v2.8c0 .51.41.93.93.93h7.47c.51 0 .93-.42.93-.93v-2.8h28v2.8c0 .51.42.93.93.93h7.47c.52 0 .93-.42.93-.93v-2.8h3.74c.51 0 .93-.42.93-.94v-5.6a.93.93 0 00-.93-.93zm-42.94 9.33h-5.6v-1.86h5.6v1.86zm37.34 0h-5.6v-1.86h5.6v1.86zm4.66-3.73H1.87v-3.73h52.26v3.73zM3.73 42.93h48.54c.51 0 .93-.41.93-.93V21.47a.93.93 0 00-.93-.94h-11.2V.93a.93.93 0 00-.94-.93H15.87a.93.93 0 00-.94.93v19.6H3.73a.93.93 0 00-.93.94V42c0 .52.42.93.93.93zm47.6-1.86h-22.4V22.4h7.47v4.67c0 .51.42.93.93.93h5.6c.52 0 .94-.42.94-.93V22.4h7.46v18.67zM42 26.13h-3.73V22.4H42v3.73zM29.87 1.87V5.6h-3.74V1.87h3.74zm-13.07 0h7.47v4.66c0 .52.41.94.93.94h5.6c.52 0 .93-.42.93-.94V1.87h7.47v18.66H16.8V1.87zm.93 20.53v3.73H14V22.4h3.73zm-13.06 0h7.46v4.67c0 .51.42.93.94.93h5.6c.51 0 .93-.42.93-.93V22.4h7.47v18.67H4.67V22.4z"/><path fill="#1E81CE" d="M11.2 37.33H7.47a.93.93 0 000 1.87h3.73a.93.93 0 100-1.87zM11.2 34.53H7.47a.93.93 0 000 1.87h3.73a.93.93 0 100-1.87zM14.93 34.53H14a.93.93 0 000 1.87h.93a.93.93 0 100-1.87zM14.93 37.33H14a.93.93 0 000 1.87h.93a.93.93 0 100-1.87zM19.6 18.67h3.73a.93.93 0 000-1.87H19.6a.93.93 0 100 1.87zM19.6 15.87h3.73a.93.93 0 000-1.87H19.6a.93.93 0 100 1.87zM26.13 15.87h.94a.93.93 0 000-1.87h-.94a.93.93 0 000 1.87zM26.13 18.67h.94a.93.93 0 000-1.87h-.94a.93.93 0 000 1.87zM35.47 37.33h-3.74a.93.93 0 000 1.87h3.74a.93.93 0 000-1.87zM35.47 34.53h-3.74a.93.93 0 000 1.87h3.74a.93.93 0 000-1.87zM39.2 34.53h-.93a.93.93 0 000 1.87h.93a.93.93 0 100-1.87zM39.2 37.33h-.93a.93.93 0 000 1.87h.93a.93.93 0 100-1.87z"/></g></svg>