<?xml version="1.0" encoding="UTF-8"?>
<svg width="60px" height="60px" viewBox="0 0 60 60" version="1.1" xmlns="http://www.w3.org/2000/svg" xmlns:xlink="http://www.w3.org/1999/xlink">
    <!-- Generator: Sketch 61 (89581) - https://sketch.com -->
    <title>step-02-inactive</title>
    <desc>Created with Sketch.</desc>
    <g id="Mobile" stroke="none" stroke-width="1" fill="none" fill-rule="evenodd">
        <g id="Mobile-/-07-1-BuyOut-Cars-Home-Copy" transform="translate(-150.000000, -134.000000)">
            <g id="step-02-inactive" transform="translate(150.000000, 134.000000)">
                <circle id="Oval-Copy" stroke="#E5E5E5" stroke-width="2" fill="#F3F3F3" cx="30" cy="30" r="29"></circle>
                <path d="M37.356,39 L37.356,36.62 L30.804,36.62 C29.5906667,36.62 28.5453333,36.6573333 27.668,36.732 L27.668,36.732 L33.212,30.544 C34.5,29.1066667 35.396,27.8793333 35.9,26.862 C36.404,25.8446667 36.656,24.7293333 36.656,23.516 C36.656,21.8733333 36.1753333,20.7673333 35.214,20.198 C34.2526667,19.6286667 32.7546667,19.344 30.72,19.344 C28.872,19.344 26.912,19.5866667 24.84,20.072 L24.84,20.072 L25.008,21.976 C26.8373333,21.6773333 28.6853333,21.528 30.552,21.528 C31.8026667,21.528 32.7126667,21.6586667 33.282,21.92 C33.8513333,22.1813333 34.1453333,22.7506667 34.164,23.628 C34.2013333,24.524 33.94,25.4806667 33.38,26.498 C32.82,27.5153333 31.9053333,28.7053333 30.636,30.068 L30.636,30.068 L25.036,36.396 C24.7933333,36.6573333 24.672,37.012 24.672,37.46 L24.672,37.46 L24.672,39 L37.356,39 Z" id="2" fill="#777777" fill-rule="nonzero"></path>
            </g>
        </g>
    </g>
</svg>