<?xml version="1.0" encoding="UTF-8"?>
<svg width="61px" height="60px" viewBox="0 0 61 60" version="1.1" xmlns="http://www.w3.org/2000/svg" xmlns:xlink="http://www.w3.org/1999/xlink">
    <!-- Generator: Sketch 61 (89581) - https://sketch.com -->
    <title>step-01-success</title>
    <desc>Created with Sketch.</desc>
    <g id="Mobile" stroke="none" stroke-width="1" fill="none" fill-rule="evenodd">
        <g id="Mobile-/-07-1-BuyOut-Cars-Home-Copy-2" transform="translate(-37.000000, -134.000000)">
            <g id="step-01-success" transform="translate(37.000000, 134.000000)">
                <circle id="Oval" stroke="#29BC55" stroke-width="2" fill="#F3F3F3" cx="30" cy="30" r="29"></circle>
                <path d="M32.436,39 L32.436,19.68 L29.972,19.68 L25.044,21.668 L25.38,23.488 L30.112,22.004 C30.0186667,22.4706667 29.972,23.0306667 29.972,23.684 L29.972,23.684 L29.972,39 L32.436,39 Z" id="1" fill="#29BC55" fill-rule="nonzero"></path>
                <g id="Group-2" transform="translate(38.000000, 1.000000)">
                    <circle id="Oval" fill="#FFFFFF" cx="11" cy="11" r="11"></circle>
                    <g id="check-circle" transform="translate(1.000000, 0.000000)" stroke="#29BC55" stroke-linecap="round" stroke-linejoin="round" stroke-width="2">
                        <path d="M20,10.07 L20,11 C19.9974678,15.4286859 17.082294,19.328213 12.8353524,20.583901 C8.58841086,21.839589 4.02139355,20.1523121 1.61095509,16.4370663 C-0.799483376,12.7218205 -0.479136554,7.86363898 2.39827419,4.49707214 C5.27568494,1.13050531 10.0247126,0.0575252842 14.07,1.86" id="Shape"></path>
                        <polyline id="Shape" points="21 2 10 13 7 10"></polyline>
                    </g>
                </g>
            </g>
        </g>
    </g>
</svg>