<svg xmlns="http://www.w3.org/2000/svg" width="56" height="56"><title>Media/Icons/Detailed Icons/icon-express-delivery</title><desc>Created with Sketch.</desc><g fill="none"><g fill-rule="nonzero"><g fill="#9BC9FF"><path id="Path" d="M38.27 26.45v-11.2c0-1.03-.84-1.86-1.87-1.87H28c0 5.16-4.18 9.34-9.33 9.34-5.16 0-9.34-4.18-9.34-9.34H2.8c-1.03 0-1.86.84-1.87 1.87v24.27h37.34V26.45zM43.87 35.78c-1.03 0-1.87-.83-1.87-1.86v-7.47h-3.73v18.67h4.12c.73-1.7 2.4-2.8 4.27-2.8 1.85 0 3.53 1.1 4.27 2.8h4.13v-9.34h-11.2zM14 42.32c1.85 0 3.53 1.1 4.27 2.8h20v-5.6H.93v5.6h8.8c.74-1.7 2.42-2.8 4.27-2.8zM51.33 46.98c0 .65-.13 1.28-.4 1.87h2.27c1.03 0 1.87-.84 1.87-1.87v-1.86h-4.13c.26.58.4 1.22.4 1.86zM9.73 45.12H.93v1.86c0 1.03.84 1.87 1.87 1.87h6.93c-.53-1.2-.53-2.54 0-3.73zM42.4 45.12H18.26c.53 1.2.53 2.54 0 3.73H42.4c-.53-1.2-.53-2.54 0-3.73z"/></g><path fill="#1E81CE" d="M45.73 25.52H39.2V15.25c0-1.55-1.25-2.8-2.8-2.8h-7.5c-.5-5.3-4.92-9.34-10.23-9.34-5.32 0-9.75 4.06-10.22 9.35H2.8c-1.55 0-2.8 1.25-2.8 2.8v31.73c0 1.55 1.25 2.8 2.8 2.8h6.36c1 1.74 2.84 2.8 4.84 2.8s3.85-1.06 4.84-2.8h22.98c1 1.74 2.85 2.8 4.85 2.8 2 0 3.84-1.06 4.84-2.8h1.7c1.55 0 2.8-1.25 2.8-2.8v-11.2c0-5.66-4.6-10.26-10.27-10.26zm8.35 9.33h-10.2c-.53 0-.95-.42-.95-.93v-6.54h2.8c4.28 0 7.87 3.22 8.35 7.47zm-13-7.47v6.54c0 1.54 1.24 2.8 2.8 2.8h10.25v7.46H51.5c-1-1.73-2.83-2.8-4.83-2.8s-3.85 1.07-4.85 2.8H39.2v-16.8h1.87zm-22.24 16.8c-1-1.73-2.84-2.8-4.84-2.8s-3.85 1.07-4.84 2.8h-7.3v-3.73h35.47v3.73h-18.5zm-.17-39.2c4.64 0 8.4 3.76 8.4 8.4 0 4.64-3.76 8.4-8.4 8.4-4.64 0-8.4-3.76-8.4-8.4 0-4.63 3.76-8.4 8.4-8.4zM1.87 15.25c0-.52.4-.93.93-.93h5.65c.47 5.3 4.9 9.34 10.22 9.34 5.3 0 9.74-4.05 10.22-9.34h7.5c.52 0 .93.4.93.93v23.33H1.87V15.25zm.93 32.67c-.52 0-.93-.42-.93-.94v-.93h6.6c-.1.62-.1 1.25 0 1.87H2.8zm11.2 2.8c-2.06 0-3.73-1.67-3.73-3.74 0-2.06 1.67-3.73 3.73-3.73s3.73 1.67 3.73 3.73c0 2.07-1.67 3.74-3.73 3.74zm5.52-2.8c.1-.62.1-1.25 0-1.87h21.63c-.1.62-.1 1.25 0 1.87H19.52zm27.15 2.8c-2.07 0-3.74-1.67-3.74-3.74 0-2.06 1.67-3.73 3.74-3.73 2.06 0 3.73 1.67 3.73 3.73 0 2.07-1.67 3.74-3.73 3.74zm7.46-3.74c0 .52-.4.94-.93.94h-1.02c.1-.62.1-1.25 0-1.87h1.95v.93z"/><path fill="#1E81CE" d="M14.93 14.32h3.74c.5 0 .93-.42.93-.94v-5.6c0-.5-.42-.93-.93-.93-.52 0-.94.42-.94.93v4.67h-2.8c-.5 0-.93.42-.93.93 0 .52.42.94.93.94z"/></g></g></svg>