<svg id="SvgjsSvg1001" width="288" height="288" xmlns="http://www.w3.org/2000/svg" version="1.1" xmlns:xlink="http://www.w3.org/1999/xlink" xmlns:svgjs="http://svgjs.com/svgjs"><defs id="SvgjsDefs1002"></defs><g id="SvgjsG1008" transform="matrix(1,0,0,1,0,0)"><svg xmlns="http://www.w3.org/2000/svg" width="288" height="288"><g fill="none"><path fill="#ffcccf" d="M44.73 31.72v-7.44H39.5c-.2-.6-.45-1.2-.74-1.78l3.7-3.7-5.26-5.26-3.7 3.7c-.57-.3-1.17-.54-1.78-.74v-5.23h-7.44v5.23c-.6.2-1.2.45-1.78.74l-3.7-3.7-5.26 5.26 3.7 3.7c-.3.57-.54 1.17-.74 1.78h-5.23v7.44h5.23c.2.6.45 1.2.74 1.78l-3.7 3.7 5.26 5.26 3.7-3.7c.57.3 1.17.54 1.78.74v5.23h7.44V39.5c.6-.2 1.2-.45 1.78-.74l3.7 3.7 5.26-5.26-3.7-3.7c.3-.57.54-1.17.74-1.78h5.23zM28 34.52c-3.6 0-6.5-2.93-6.5-6.52 0-3.6 2.9-6.5 6.5-6.5s6.5 2.9 6.5 6.5-2.9 6.5-6.5 6.5z" class="color9BC9FF svgShape"></path><g fill="#c30000" class="color1E81CE svgShape"><path d="M31.72 45.66h-7.44c-.5 0-.93-.42-.93-.93v-4.57c-.22-.1-.44-.18-.66-.28l-3.24 3.24c-.18.17-.42.27-.66.27-.25 0-.48-.1-.66-.28l-5.26-5.26c-.36-.36-.36-.95 0-1.32l3.24-3.23c-.1-.2-.2-.43-.28-.65h-4.57c-.5 0-.93-.42-.93-.93v-7.44c0-.5.42-.93.93-.93h4.57c.1-.22.18-.44.28-.66l-3.24-3.24c-.36-.37-.36-.96 0-1.32l5.26-5.26c.37-.35.95-.35 1.32 0l3.23 3.24c.2-.1.43-.2.65-.28v-4.57c0-.5.42-.93.93-.93h7.44c.5 0 .93.42.93.93v4.57c.22.1.44.18.66.28l3.24-3.24c.18-.17.42-.27.66-.27.25 0 .48.1.66.28l5.26 5.26c.36.36.36.95 0 1.32l-3.24 3.23c.1.2.2.43.28.65h4.57c.5 0 .93.42.93.93v7.44c0 .5-.42.93-.93.93h-4.57c-.1.22-.18.44-.28.66l3.24 3.24c.36.37.36.96 0 1.32l-5.26 5.26c-.37.35-.95.35-1.32 0l-3.23-3.24c-.2.1-.43.2-.65.28v4.57c0 .5-.42.93-.93.93zm-6.5-1.86h5.57v-4.3c0-.4.25-.77.64-.9.57-.17 1.12-.4 1.65-.67.35-.18.78-.1 1.06.18l3.04 3.05 3.95-3.95-3.04-3.04c-.28-.28-.35-.72-.17-1.07.27-.54.5-1.1.68-1.66.13-.4.5-.65.9-.65h4.3v-5.6h-4.3c-.4 0-.77-.25-.9-.64-.17-.57-.4-1.12-.67-1.65-.18-.35-.1-.78.18-1.06l3.05-3.04-3.95-3.95-3.04 3.04c-.28.28-.72.35-1.07.17-.54-.27-1.1-.5-1.66-.68-.4-.13-.65-.5-.65-.9v-4.3h-5.6v4.3c0 .4-.25.77-.64.9-.57.17-1.12.4-1.65.67-.35.18-.78.1-1.06-.18l-3.04-3.05-3.95 3.95 3.04 3.04c.28.28.35.72.17 1.07-.27.54-.5 1.1-.68 1.66-.13.4-.5.65-.9.65h-4.3v5.6h4.3c.4 0 .77.25.9.64.17.57.4 1.12.67 1.65.18.35.1.78-.18 1.07l-3.05 3.03 3.95 3.95 3.04-3.04c.28-.28.72-.35 1.07-.17.54.27 1.1.5 1.66.68.4.13.65.5.65.9v4.3zM28 35.44c-4.1 0-7.44-3.33-7.44-7.44 0-4.1 3.33-7.44 7.44-7.44 4.1 0 7.44 3.33 7.44 7.44 0 4.1-3.34 7.43-7.44 7.44zm0-13.02c-3.08 0-5.58 2.5-5.58 5.58s2.5 5.58 5.58 5.58 5.58-2.5 5.58-5.58-2.5-5.57-5.58-5.58z" fill="#e40000" class="color000 svgShape"></path><path d="M6.62 28.93c-.5 0-.93-.42-.93-.93 0-12.3 10-22.3 22.3-22.3.5 0 .93.4.93.92s-.42.93-.93.93C16.7 7.55 7.56 16.7 7.55 28c0 .5-.4.93-.93.93zM28 50.3c-.5 0-.93-.4-.93-.92s.42-.93.93-.93c11.3 0 20.44-9.16 20.45-20.45 0-.5.4-.93.93-.93.5 0 .93.42.93.93 0 12.3-10 22.3-22.3 22.3zM48.77 9.4h3.4c.5 0 .93-.4.93-.92 0-.5-.42-.93-.93-.93H46.6c-.52 0-.94.42-.94.93v5.58c0 .5.42.93.93.93.5 0 .92-.43.92-.94V10.8c4.2 4.73 6.53 10.86 6.5 17.2 0 9.78-5.47 18.73-14.17 23.18-8.7 4.45-19.17 3.64-27.1-2.08-.26-.2-.62-.25-.93-.12-.3.14-.53.43-.56.77-.03.34.13.66.4.85 8.5 6.14 19.7 7 29.03 2.23C50 48.06 55.9 38.47 55.87 28c.03-6.87-2.5-13.5-7.1-18.6zM44.34 5.4c-8.48-6.13-19.7-7-29.03-2.23C6 7.93.13 17.52.13 28c-.03 6.87 2.5 13.5 7.1 18.6h-3.4c-.5 0-.92.4-.92.92 0 .5.42.93.93.93H9.4c.52 0 .94-.42.94-.93v-5.58c0-.5-.42-.93-.93-.93-.5 0-.92.43-.92.94v3.27c-4.2-4.73-6.53-10.86-6.5-17.2 0-9.78 5.47-18.73 14.18-23.18 8.7-4.45 19.17-3.64 27.1 2.1.4.3 1 .2 1.3-.22.3-.4.2-1-.22-1.3zM27.07 14.06h1.86v1.86h-1.86zM17.48 18.8l1.32-1.32 1.3 1.32-1.3 1.3zM14.06 27.07h1.86v1.86h-1.86zM17.48 37.2l1.3-1.3 1.33 1.3-1.3 1.3zM27.07 40.08h1.86v1.86h-1.86zM35.88 37.2l1.3-1.3 1.33 1.3-1.3 1.3zM40.08 27.07h1.86v1.86h-1.86zM35.88 18.8l1.32-1.3 1.3 1.3-1.3 1.3z" fill="#e40000" class="color000 svgShape"></path></g></g></svg></g></svg>