<svg xmlns="http://www.w3.org/2000/svg" width="56" height="56"><title>Media/Icons/Detailed Icons/icon-proven-quality</title><desc>Created with Sketch.</desc><g fill="none"><g fill-rule="nonzero"><path id="Path" fill="#B1D5FF" d="M47.6 13.97L41.07.93h-14l1.86 13.04zM21.47.93h-14L.93 13.97H19.6zM28.93 13.97v14.9H19.6v-14.9H.93v37.26H38.7c-3.84-3.53-6.03-8.5-6.03-13.7V32.6l11.2-3.73 3.73 1.24V13.98H28.93z"/><path id="Shape" fill="#1E81CE" d="M33.6 50.3H1.87V14.9h16.8v13.97c0 .52.4.93.93.93h9.33c.52 0 .94-.4.94-.93V14.9h16.8v11.57c0 .5.4.93.93.93.52 0 .93-.42.93-.93v-12.5s0-.02 0-.03c0-.1-.03-.2-.06-.3 0 0 0-.03-.02-.05 0-.03 0-.03 0-.05L41.9.52C41.74.2 41.42 0 41.07 0H7.47c-.36 0-.68.2-.84.52L.1 13.55c0 .02 0 .03 0 .04-.02 0-.03.03-.04.05-.03.1-.05.2-.05.3 0 0 0 0 0 .02v37.26c0 .5.42.93.93.93H33.6c.52 0 .93-.42.93-.93 0-.52-.4-.93-.93-.93zM28 27.94h-7.47V14.9H28v13.04zm18.1-14.9H29.73l-1.6-11.18H40.5l5.6 11.18zM26.25 1.86l1.6 11.18h-7.18l1.6-11.18h3.98zm-18.22 0H20.4l-1.6 11.18H2.43l5.6-11.18z"/><path id="Path" fill="#1E81CE" d="M14 40.98H6.53c-.5 0-.93.42-.93.93 0 .53.42.94.93.94H14c.52 0 .93-.4.93-.93 0-.5-.4-.92-.93-.92zM14 44.7H6.53c-.5 0-.93.42-.93.94 0 .5.42.93.93.93H14c.52 0 .93-.42.93-.93 0-.52-.4-.93-.93-.93zM14 37.26H6.53c-.5 0-.93.4-.93.93 0 .5.42.92.93.92H14c.52 0 .93-.42.93-.93 0-.53-.4-.94-.93-.94zM19.6 37.26h-1.87c-.5 0-.93.4-.93.93 0 .5.42.92.93.92h1.87c.52 0 .93-.42.93-.93 0-.53-.4-.94-.93-.94zM19.6 40.98h-1.87c-.5 0-.93.42-.93.93 0 .53.42.94.93.94h1.87c.52 0 .93-.4.93-.93 0-.5-.4-.92-.93-.92zM19.6 44.7h-1.87c-.5 0-.93.42-.93.94 0 .5.42.93.93.93h1.87c.52 0 .93-.42.93-.93 0-.52-.4-.93-.93-.93z"/><path fill="#1E81CE" d="M55.36 31.7L44.16 28c-.2-.07-.4-.07-.6 0l-11.2 3.7c-.37.14-.63.5-.63.9v4.94c0 6.54 3.27 12.64 8.73 16.27l2.9 1.93c.3.2.7.2 1.02 0l2.9-1.92C52.72 50.2 56 44.1 56 37.55V32.6c0-.4-.26-.76-.64-.9zm-1.23 5.84c0 5.9-2.95 11.44-7.9 14.72l-2.36 1.57-2.37-1.57c-4.94-3.28-7.9-8.8-7.9-14.72v-4.27l10.27-3.42 10.26 3.42v4.27z"/><path fill="#1E81CE" d="M43.9 50.45c.14.2.36.35.6.4.24.04.5 0 .7-.14 3.35-2.2 5.72-5.62 6.64-9.52.12-.5-.2-1-.7-1.12-.5-.12-1 .2-1.1.7-.82 3.43-2.92 6.44-5.87 8.4-.2.13-.35.35-.4.6-.05.23 0 .48.14.7zM51.33 38.47c.52 0 .94-.42.94-.93v-1.32c0-.52-.42-.94-.94-.94-.5 0-.93.42-.93.94v1.32c0 .5.42.93.93.93z"/></g></g></svg>